<?xml version="1.0" encoding="UTF-8"?>
<svg width="12px" height="13px" viewBox="0 0 12 13" version="1.1" xmlns="http://www.w3.org/2000/svg" xmlns:xlink="http://www.w3.org/1999/xlink">
    <!-- Generator: Sketch 64 (93537) - https://sketch.com -->
    <title>like_visited</title>
    <desc>Created with Sketch.</desc>
    <g id="Page-1" stroke="none" stroke-width="1" fill="none" fill-rule="evenodd">
        <g id="Apple-TV-Copy-3" transform="translate(-548.000000, -602.000000)" fill="#0091FF" fill-rule="nonzero">
            <g id="Group-8" transform="translate(248.000000, 10.000000)">
                <g id="Group-2-Copy-2" transform="translate(10.000000, 510.000000)">
                    <g id="Group">
                        <g id="Group-6" transform="translate(280.000000, 77.000000)">
                            <path d="M19.3710938,17.2773438 C19.8105469,17.1777344 20.2441406,16.8964844 20.2441406,16.3574219 C20.2441406,16.140625 20.1855469,15.9824219 20.109375,15.859375 C20.0683594,15.7890625 20.0742188,15.7304688 20.1386719,15.7011719 C20.4902344,15.5488281 20.7890625,15.2324219 20.7890625,14.78125 C20.7890625,14.5234375 20.71875,14.3007812 20.5898438,14.1367188 C20.5253906,14.0546875 20.5429688,13.984375 20.6425781,13.9257812 C20.9003906,13.7792969 21.0703125,13.4570312 21.0703125,13.0878906 C21.0703125,12.8242188 20.9824219,12.5429688 20.8300781,12.4023438 C20.7480469,12.3261719 20.7597656,12.2734375 20.859375,12.1914062 C21.0410156,12.0507812 21.140625,11.7871094 21.140625,11.4648438 C21.140625,10.9199219 20.71875,10.4746094 20.1621094,10.4746094 L18.1640625,10.4746094 C17.6601562,10.4746094 17.3203125,10.2109375 17.3203125,9.80078125 C17.3203125,9.02734375 18.2753906,7.63867188 18.2753906,6.64257812 C18.2753906,6.12109375 17.9355469,5.81054688 17.4902344,5.81054688 C17.0859375,5.81054688 16.8867188,6.09179688 16.6640625,6.51367188 C15.8320312,8.15429688 14.7070312,9.47851562 13.8457031,10.6152344 C13.1191406,11.5878906 12.7617188,12.4023438 12.75,13.7441406 C12.7207031,15.8066406 14.390625,17.3828125 17.015625,17.4003906 L17.7890625,17.40625 C18.5273438,17.4121094 19.0605469,17.359375 19.3710938,17.2773438 Z M13.4296875,16.8671875 C12.421875,16.1230469 11.9589844,15.0039062 11.9765625,13.7265625 C12,12.3144531 12.5507812,11.2949219 13.0429688,10.6855469 L12.2226562,10.6855469 C10.9628906,10.6855469 9.99023438,12.0449219 9.99023438,13.7851562 C9.99023438,15.4609375 11.0332031,16.8671875 12.4335938,16.8671875 L13.4296875,16.8671875 Z" id="like_visited"></path>
                        </g>
                    </g>
                </g>
            </g>
        </g>
    </g>
</svg>