<?xml version="1.0" encoding="UTF-8"?>
<svg width="12px" height="13px" viewBox="0 0 12 13" version="1.1" xmlns="http://www.w3.org/2000/svg" xmlns:xlink="http://www.w3.org/1999/xlink">
    <!-- Generator: Sketch 64 (93537) - https://sketch.com -->
    <title>like_default</title>
    <desc>Created with Sketch.</desc>
    <g id="Page-1" stroke="none" stroke-width="1" fill="none" fill-rule="evenodd">
        <g id="Apple-TV-Copy-3" transform="translate(-547.000000, -346.000000)" fill="#2C313A" fill-rule="nonzero">
            <g id="Group-8" transform="translate(248.000000, 10.000000)">
                <g id="Group-2" transform="translate(10.000000, 120.000000)">
                    <g id="Group-5" transform="translate(279.000000, 211.000000)">
                        <path d="M17.9414062,17.9042969 C18.6386719,17.9042969 19.2480469,17.8632812 19.6464844,17.7636719 C20.4257812,17.5703125 20.9121094,17.0253906 20.9121094,16.3398438 C20.9121094,16.1992188 20.8886719,16.0703125 20.8476562,15.9472656 C21.2285156,15.6601562 21.4511719,15.2324219 21.4511719,14.7695312 C21.4511719,14.5410156 21.4042969,14.3183594 21.3222656,14.1367188 C21.5800781,13.8730469 21.7324219,13.4863281 21.7324219,13.0820312 C21.7324219,12.8183594 21.6621094,12.5429688 21.5449219,12.3378906 C21.7089844,12.109375 21.8027344,11.7988281 21.8027344,11.4589844 C21.8027344,10.6152344 21.1464844,9.95898438 20.3144531,9.95898438 L18.2109375,9.95898438 C18.0761719,9.95898438 17.9941406,9.89453125 17.9941406,9.78320312 C18.0117188,9.17382812 18.9375,7.78515625 18.9375,6.66015625 C18.9375,5.88085938 18.3925781,5.3125 17.6425781,5.3125 C17.0859375,5.3125 16.7167969,5.59960938 16.3476562,6.296875 C15.6679688,7.609375 14.8476562,8.76953125 13.5527344,10.3515625 L12.4921875,10.3515625 C11.1035156,10.3515625 9.99023438,11.9101562 9.99023438,13.8320312 C9.99023438,15.7246094 11.2089844,17.2949219 12.703125,17.2949219 L14.5605469,17.2949219 C15.2929688,17.6757812 16.1835938,17.9042969 17.1679688,17.9042969 L17.9414062,17.9042969 Z M17.9472656,17.0253906 L17.1738281,17.0195312 C14.8535156,17.0019531 13.2714844,15.6835938 13.2714844,13.8027344 C13.2714844,12.6074219 13.5410156,11.8398438 14.296875,10.8320312 C15.1347656,9.71289062 16.2949219,8.36523438 17.1328125,6.70117188 C17.3496094,6.26757812 17.4667969,6.19140625 17.6425781,6.19140625 C17.90625,6.19140625 18.0644531,6.35546875 18.0644531,6.66015625 C18.0644531,7.5625 17.1152344,8.92773438 17.1152344,9.80664062 C17.1152344,10.4394531 17.6425781,10.8320312 18.3164062,10.8320312 L20.3027344,10.8320312 C20.6601562,10.8320312 20.9238281,11.1074219 20.9238281,11.4707031 C20.9238281,11.7226562 20.8417969,11.8925781 20.6308594,12.0917969 C20.5664062,12.15625 20.5371094,12.2207031 20.5371094,12.2910156 C20.5371094,12.3496094 20.5546875,12.4023438 20.6015625,12.4550781 C20.7773438,12.7070312 20.8535156,12.8710938 20.8535156,13.0820312 C20.8535156,13.3398438 20.7304688,13.5566406 20.484375,13.7441406 C20.3730469,13.8261719 20.3085938,13.9257812 20.3085938,14.0253906 C20.3085938,14.0664062 20.3261719,14.1132812 20.3496094,14.1542969 C20.5019531,14.4472656 20.5664062,14.5703125 20.5664062,14.7695312 C20.5664062,15.0625 20.3847656,15.2792969 19.9921875,15.484375 C19.9042969,15.53125 19.8457031,15.6074219 19.8457031,15.7011719 C19.8457031,15.7363281 19.8574219,15.7773438 19.8808594,15.8242188 C20.0097656,16.1464844 20.0273438,16.1992188 20.0273438,16.3398438 C20.0273438,16.6035156 19.8339844,16.8144531 19.4296875,16.9140625 C19.1015625,16.9960938 18.5800781,17.0371094 17.9472656,17.0253906 Z M13.4355469,16.421875 L12.7089844,16.421875 C11.7246094,16.421875 10.8632812,15.25 10.8632812,13.8320312 C10.8632812,12.390625 11.6367188,11.2246094 12.5039062,11.2246094 L12.9902344,11.2246094 C12.5742188,12.0039062 12.3984375,12.8183594 12.3984375,13.7910156 C12.3984375,14.828125 12.7734375,15.7363281 13.4355469,16.421875 Z" id="like_default"></path>
                    </g>
                </g>
            </g>
        </g>
    </g>
</svg>